ffmpeg started on 2025-06-27 at 12:02:05
Report written to "D:\Convert\FFMetrics\reports\psnr_report-6.txt"
Log level: 32
Command line:
ffmpeg -hide_banner -nostdin -i "G:\\\xc0\xed\xe8\xec\xe5\\[\xd2\xee\xef]\\\xcf\xee\xe2\xe5\xeb\xe8\xf2\xe5\xeb\xfc\\\xd2\xc2-2\\Special\\[Ohys-Raws] Overlord II - SP04 (BDRip-720p)_HEVC.mkv" -i "G:\\\xc0\xed\xe8\xec\xe5\\[\xd2\xee\xef]\\\xcf\xee\xe2\xe5\xeb\xe8\xf2\xe5\xeb\xfc\\\xd2\xc2-2\\Special\\[Ohys-Raws] Overlord II - SP04 (BDRip-720p).mkv" -lavfi "[0:v]settb=AVTB,setpts=PTS-STARTPTS,format=pix_fmts=yuv420p10,fps=24000/1001,scale=1280:720:flags=bicubic[main];[1:v]settb=AVTB,setpts=PTS-STARTPTS,format=pix_fmts=yuv420p,fps=24000/1001,scale=1280:720:flags=bicubic[ref];[main][ref]psnr=eof_action=endall:stats_file='D\\:/Convert/FFMetrics/logs/psnr_logfile-6.txt'" -f null -
Input #0, matroska,webm, from 'G:\Аниме\[Топ]\Повелитель\ТВ-2\Special\[Ohys-Raws] Overlord II - SP04 (BDRip-720p)_HEVC.mkv':
  Metadata:
    ENCODER         : Lavf61.7.100
  Duration: 00:01:32.10, start: -0.021000, bitrate: 440 kb/s
  Stream #0:0(jpn): Video: hevc (Main 10), yuv420p10le(tv, bt709, progressive), 1280x720 [SAR 1:1 DAR 16:9], 23.98 fps, 23.98 tbr, 1k tbn (default)
      Metadata:
        ENCODER         : Lavc61.19.100 libx265
        BPS             : 242271
        DURATION        : 00:01:32.091708333
        NUMBER_OF_FRAMES: 2208
        NUMBER_OF_BYTES : 2788881
        _STATISTICS_WRITING_APP: mkvpropedit v66.0.0 ('Josie') 64-bit
        _STATISTICS_WRITING_DATE_UTC: 2025-06-27 08:23:03
        _STATISTICS_TAGS: BPS DURATION NUMBER_OF_FRAMES NUMBER_OF_BYTES
  Stream #0:1(jpn): Audio: aac (LC), 48000 Hz, stereo, fltp (default)
      Metadata:
        ENCODER         : Lavc61.19.100 aac
        BPS             : 194102
        DURATION        : 00:01:32.075000000
        NUMBER_OF_FRAMES: 4317
        NUMBER_OF_BYTES : 2233993
        _STATISTICS_WRITING_APP: mkvpropedit v66.0.0 ('Josie') 64-bit
        _STATISTICS_WRITING_DATE_UTC: 2025-06-27 08:23:03
        _STATISTICS_TAGS: BPS DURATION NUMBER_OF_FRAMES NUMBER_OF_BYTES
Input #1, matroska,webm, from 'G:\Аниме\[Топ]\Повелитель\ТВ-2\Special\[Ohys-Raws] Overlord II - SP04 (BDRip-720p).mkv':
  Metadata:
    encoder         : libebml v1.2.3 + libmatroska v1.3.0
    creation_time   : 2018-08-21T12:05:28.000000Z
  Duration: 00:01:32.09, start: 0.000000, bitrate: 1027 kb/s
  Stream #1:0(jpn): Video: h264 (Main), yuv420p(progressive), 1280x720 [SAR 1:1 DAR 16:9], 23.98 fps, 23.98 tbr, 1k tbn (default)
  Stream #1:1(jpn): Audio: aac (LC), 48000 Hz, stereo, fltp (default)
Stream mapping:
  Stream #0:0 (hevc) -> settb:default
  Stream #1:0 (h264) -> settb:default
  psnr:default -> Stream #0:0 (wrapped_avframe)
  Stream #0:1 -> #0:1 (aac (native) -> pcm_s16le (native))
[swscaler @ 00000230070fe4c0] No accelerated colorspace conversion found from yuv420p to bgr48le.
[swscaler @ 000002300715f300] No accelerated colorspace conversion found from yuv420p to bgr48le.
[swscaler @ 00000230071d5a80] No accelerated colorspace conversion found from yuv420p to bgr48le.
[swscaler @ 0000023007280f40] No accelerated colorspace conversion found from yuv420p to bgr48le.
[swscaler @ 0000023007410300] No accelerated colorspace conversion found from yuv420p to bgr48le.
[swscaler @ 00000230074cd800] No accelerated colorspace conversion found from yuv420p to bgr48le.
[swscaler @ 00000230075ddec0] No accelerated colorspace conversion found from yuv420p to bgr48le.
[swscaler @ 0000023007765040] No accelerated colorspace conversion found from yuv420p to bgr48le.
[swscaler @ 0000023007807700] No accelerated colorspace conversion found from yuv420p to bgr48le.
[swscaler @ 000002300793f040] No accelerated colorspace conversion found from yuv420p to bgr48le.
[swscaler @ 0000023007a8f040] No accelerated colorspace conversion found from yuv420p to bgr48le.
[swscaler @ 0000023007ba47c0] No accelerated colorspace conversion found from yuv420p to bgr48le.
[swscaler @ 0000023007c3f040] No accelerated colorspace conversion found from yuv420p to bgr48le.
[swscaler @ 0000023007ccf040] No accelerated colorspace conversion found from yuv420p to bgr48le.
[swscaler @ 0000023007d3a040] No accelerated colorspace conversion found from yuv420p to bgr48le.
[swscaler @ 0000023007da7040] No accelerated colorspace conversion found from yuv420p to bgr48le.
Output #0, null, to 'pipe:':
  Metadata:
    encoder         : Lavf61.7.100
  Stream #0:0: Video: wrapped_avframe, yuv420p10le(tv, bt709, progressive), 1280x720 [SAR 1:1 DAR 16:9], q=2-31, 200 kb/s, 23.98 fps, 23.98 tbn
      Metadata:
        encoder         : Lavc61.19.100 wrapped_avframe
  Stream #0:1(jpn): Audio: pcm_s16le, 48000 Hz, stereo, s16, 1536 kb/s (default)
      Metadata:
        _STATISTICS_TAGS: BPS DURATION NUMBER_OF_FRAMES NUMBER_OF_BYTES
        BPS             : 194102
        DURATION        : 00:01:32.075000000
        NUMBER_OF_FRAMES: 4317
        NUMBER_OF_BYTES : 2233993
        _STATISTICS_WRITING_APP: mkvpropedit v66.0.0 ('Josie') 64-bit
        _STATISTICS_WRITING_DATE_UTC: 2025-06-27 08:23:03
        encoder         : Lavc61.19.100 pcm_s16le
frame=   71 fps=0.0 q=-0.0 size=N/A time=00:00:02.96 bitrate=N/A speed=5.78x    frame=  165 fps=161 q=-0.0 size=N/A time=00:00:06.88 bitrate=N/A speed=6.72x    frame=  255 fps=166 q=-0.0 size=N/A time=00:00:10.63 bitrate=N/A speed=6.93x    frame=  348 fps=169 q=-0.0 size=N/A time=00:00:14.51 bitrate=N/A speed=7.04x    frame=  435 fps=169 q=-0.0 size=N/A time=00:00:18.14 bitrate=N/A speed=7.05x    frame=  523 fps=170 q=-0.0 size=N/A time=00:00:21.81 bitrate=N/A speed=7.07x    frame=  611 fps=169 q=-0.0 size=N/A time=00:00:25.48 bitrate=N/A speed=7.06x    frame=  704 fps=171 q=-0.0 size=N/A time=00:00:29.36 bitrate=N/A speed=7.13x    frame=  792 fps=171 q=-0.0 size=N/A time=00:00:33.03 bitrate=N/A speed=7.13x    frame=  885 fps=172 q=-0.0 size=N/A time=00:00:36.91 bitrate=N/A speed=7.15x    frame=  977 fps=172 q=-0.0 size=N/A time=00:00:40.74 bitrate=N/A speed=7.17x    frame= 1065 fps=172 q=-0.0 size=N/A time=00:00:44.41 bitrate=N/A speed=7.17x    frame= 1157 fps=172 q=-0.0 size=N/A time=00:00:48.25 bitrate=N/A speed=7.18x    frame= 1247 fps=173 q=-0.0 size=N/A time=00:00:52.01 bitrate=N/A speed= 7.2x    frame= 1337 fps=173 q=-0.0 size=N/A time=00:00:55.76 bitrate=N/A speed= 7.2x    frame= 1426 fps=173 q=-0.0 size=N/A time=00:00:59.47 bitrate=N/A speed= 7.2x    frame= 1516 fps=173 q=-0.0 size=N/A time=00:01:03.22 bitrate=N/A speed= 7.2x    frame= 1607 fps=173 q=-0.0 size=N/A time=00:01:07.02 bitrate=N/A speed=7.22x    frame= 1700 fps=173 q=-0.0 size=N/A time=00:01:10.90 bitrate=N/A speed=7.23x    frame= 1790 fps=173 q=-0.0 size=N/A time=00:01:14.65 bitrate=N/A speed=7.23x    frame= 1876 fps=173 q=-0.0 size=N/A time=00:01:18.24 bitrate=N/A speed=7.22x    frame= 1970 fps=174 q=-0.0 size=N/A time=00:01:22.16 bitrate=N/A speed=7.24x    frame= 2061 fps=174 q=-0.0 size=N/A time=00:01:25.96 bitrate=N/A speed=7.24x    frame= 2152 fps=174 q=-0.0 size=N/A time=00:01:29.75 bitrate=N/A speed=7.24x    [Parsed_psnr_10 @ 00000230069256c0] PSNR y:44.341804 u:48.211772 v:47.770099 average:45.253089 min:40.632127 max:56.008623
[out#0/null @ 000002307aaf27c0] video:949KiB audio:17268KiB subtitle:0KiB other streams:0KiB global headers:0KiB muxing overhead: unknown
frame= 2208 fps=174 q=-0.0 Lsize=N/A time=00:01:32.09 bitrate=N/A speed=7.25x    
